<svg xmlns="http://www.w3.org/2000/svg" version="1.1" xmlns:xlink="http://www.w3.org/1999/xlink" xmlns:svgjs="http://svgjs.dev/svgjs" width="1500" height="465" viewBox="0 0 1500 465"><g transform="matrix(1,0,0,1,-0.9092213839184069,-0.905571817122933)"><svg viewBox="0 0 396 123" data-background-color="#efefef" preserveAspectRatio="xMidYMid meet" height="465" width="1500" xmlns="http://www.w3.org/2000/svg" xmlns:xlink="http://www.w3.org/1999/xlink"><g id="tight-bounds" transform="matrix(1,0,0,1,0.2400344453544676,0.23953835162606651)"><svg viewBox="0 0 395.52 122.52092329674787" height="122.52092329674787" width="395.52"><g><svg viewBox="0 0 603.1222295675524 186.8302296404977" height="122.52092329674787" width="395.52"><g transform="matrix(1,0,0,1,0,25.820965167391506)"><svg viewBox="0 0 395.52 135.18829930571468" height="135.18829930571468" width="395.52"><g id="textblocktransform"><svg viewBox="0 0 395.52 135.18829930571468" height="135.18829930571468" width="395.52" id="textblock"><g><svg viewBox="0 0 395.52 87.98861352723142" height="87.98861352723142" width="395.52"><g transform="matrix(1,0,0,1,0,0)"><svg width="395.52" viewBox="0.323125 -38.311363635498 181.01187499755 40.273863635497996" height="87.98861352723142" data-palette-color="#d94e28"><path d="M23.55-30.5L23.55-30.5Q23.5-29.9 23.33-29.08 23.15-28.25 22.9-27.53 22.65-26.8 22.4-26.3 22.15-25.8 22-25.9L22-25.9Q21.95-25.9 21.95-26.15 21.95-26.4 21.95-26.73 21.95-27.05 22-27.35 22.05-27.65 22.05-27.8L22.05-27.8Q22.2-28.6 22.25-29.3 22.3-30 22.4-30.75L22.4-30.75Q22.5-31.7 22.53-32.55 22.55-33.4 22.4-34.3L22.4-34.3Q22.4-34.4 22.35-34.55 22.3-34.7 22.4-34.7L22.4-34.7Q22.55-34.7 22.75-34.48 22.95-34.25 23-34.15L23-34.15Q23.3-33.55 23.48-32.75 23.65-31.95 23.55-30.5ZM24.2-34L24.2-34Q25.05-32 25.23-30.03 25.4-28.05 25.13-26.08 24.85-24.1 24.18-22.15 23.5-20.2 22.65-18.35L22.65-18.35Q21.5-15.85 20.23-13.45 18.95-11.05 17.75-8.75 16.55-6.45 15.53-4.28 14.5-2.1 13.9 0L13.9 0Q13.8 0.25 13.68 0.2 13.55 0.15 13.55 0L13.55 0Q13.45-2.4 14.25-4.83 15.05-7.25 16.28-9.7 17.5-12.15 18.93-14.63 20.35-17.1 21.5-19.65L21.5-19.65Q22.25-21.25 22.85-23 23.45-24.75 23.83-26.6 24.2-28.45 24.28-30.28 24.35-32.1 24-33.85L24-33.85Q23.9-34.3 24-34.25L24-34.25Q24.05-34.25 24.2-34ZM7.95-14.45L7.95-14.45Q7.95-14.3 7.93-13.83 7.9-13.35 7.75-13.35L7.75-13.35Q7.65-13.3 7.5-13.73 7.35-14.15 7.25-14.4L7.25-14.4Q7.05-15.05 6.8-15.98 6.55-16.9 6.33-17.88 6.1-18.85 5.93-19.8 5.75-20.75 5.7-21.45L5.7-21.45Q5.65-21.8 5.5-22.83 5.35-23.85 5.1-25.25 4.85-26.65 4.53-28.25 4.2-29.85 3.83-31.33 3.45-32.8 3.05-33.98 2.65-35.15 2.25-35.7L2.25-35.7Q2-36.05 2.1-36.15L2.1-36.15Q2.2-36.25 2.35-36.13 2.5-36 2.6-35.9L2.6-35.9Q3.4-35.3 4.13-34.2 4.85-33.1 5.45-31.85 6.05-30.6 6.45-29.28 6.85-27.95 7-26.9L7-26.9Q7.45-23.95 7.65-20.65 7.85-17.35 7.95-14.45ZM11.1-7.4L11.1-7.4Q10.1-10.75 9.5-14.3 8.9-17.85 8.45-21.45L8.45-21.45Q8.1-24.1 7.65-26.75 7.2-29.4 6.25-32.25L6.25-32.25Q6.15-32.5 6.15-32.52 6.15-32.55 6.25-32.6L6.25-32.6Q6.35-32.6 6.6-32.35L6.6-32.35Q7.65-31.3 8.38-29.1 9.1-26.9 9.63-24.43 10.15-21.95 10.5-19.63 10.85-17.3 11.1-15.9L11.1-15.9Q11.35-14.75 11.53-13.55 11.7-12.35 11.8-11.15L11.8-11.15Q12.15-12.5 12.75-13.93 13.35-15.35 13.98-16.7 14.6-18.05 15.23-19.23 15.85-20.4 16.25-21.25L16.25-21.25Q17.3-23.5 18.65-25.78 20-28.05 21.15-29.6L21.15-29.6Q21.6-30.2 21.65-30.2L21.65-30.2Q21.75-30.1 21.68-29.88 21.6-29.65 21.5-29.4L21.5-29.4Q20.5-25.8 18.78-22.4 17.05-19 15.3-15.55L15.3-15.55Q14.3-13.65 13.3-11.7 12.3-9.75 11.8-7.35L11.8-7.35Q11.7-6.8 11.53-6.68 11.35-6.55 11.1-7.4ZM12.65 0L12.65 0Q12.8 0.1 12.73 0.13 12.65 0.15 12.5 0.05L12.5 0.05Q10.55-0.85 9.15-2.43 7.75-4 6.78-5.95 5.8-7.9 5.2-10.1 4.6-12.3 4.2-14.45L4.2-14.45Q3.65-17.45 3.35-20.45 3.05-23.45 2.68-26.33 2.3-29.2 1.8-31.83 1.3-34.45 0.4-36.65L0.4-36.65Q0.35-36.75 0.33-36.83 0.3-36.9 0.4-37L0.4-37Q0.45-37.05 0.55-36.9 0.65-36.75 0.7-36.65L0.7-36.65Q2.25-34.55 3.03-31.88 3.8-29.2 4.2-26.23 4.6-23.25 4.88-20.13 5.15-17 5.7-14.05L5.7-14.05Q6.05-12.15 6.65-10.18 7.25-8.2 8.1-6.33 8.95-4.45 10.08-2.83 11.2-1.2 12.65 0ZM12.4-1.25L12.4-1.25Q12.1-1.55 11.63-2.05 11.15-2.55 10.75-3.1L10.75-3.1Q10.45-3.6 10.1-4.42 9.75-5.25 9.47-6.05 9.2-6.85 9.08-7.48 8.95-8.1 9.1-8.15L9.1-8.15Q9.15-8.15 9.33-7.93 9.5-7.7 9.65-7.4 9.8-7.1 9.95-6.83 10.1-6.55 10.2-6.45L10.2-6.45Q10.6-5.75 10.9-5.18 11.2-4.6 11.45-3.95L11.45-3.95Q11.75-3.3 12.08-2.83 12.4-2.35 12.45-2.4L12.45-2.4Q12.5-2.4 12.48-2.68 12.45-2.95 12.43-3.3 12.4-3.65 12.38-3.98 12.35-4.3 12.35-4.45L12.35-4.45Q12.25-6.35 12.68-7.85 13.1-9.35 13.65-10.6L13.65-10.6Q14.8-13.15 16.35-15.7 17.9-18.25 19.5-20.5L19.5-20.5Q19.6-20.6 19.9-20.95 20.2-21.3 20.3-21.25L20.3-21.25Q20.45-21.2 20.33-20.78 20.2-20.35 20.15-20.2L20.15-20.2Q19.95-19.6 19.63-18.8 19.3-18 18.95-17.13 18.6-16.25 18.23-15.45 17.85-14.65 17.55-14.1L17.55-14.1Q17.4-13.8 17-12.95 16.6-12.1 16.1-10.88 15.6-9.65 15.05-8.25 14.5-6.85 14.03-5.53 13.55-4.2 13.25-3.1 12.95-2 12.95-1.35L12.95-1.35Q12.95-1 12.8-1L12.8-1Q12.65-1 12.4-1.25ZM31.7-16.5L31.7-16.5Q31.85-17.15 31.87-18 31.9-18.85 31.75-19.75 31.6-20.65 31.22-21.48 30.85-22.3 30.25-22.9L30.25-22.9Q29.95-23.1 29.9-23.1L29.9-23.1Q29.7-23.1 29.9-22.8L29.9-22.8Q30.2-22.15 30.12-20.78 30.05-19.4 29.8-17.93 29.55-16.45 29.27-15.28 29-14.1 28.95-13.85L28.95-13.85Q28.6-12.95 28.32-11.6 28.05-10.25 28.05-9.4L28.05-9.4Q28-9.3 28-9 28-8.7 28.15-8.65L28.15-8.65Q28.2-8.65 28.35-8.9 28.5-9.15 28.6-9.25L28.6-9.25Q29.5-10.85 30.32-12.75 31.15-14.65 31.7-16.5ZM31.9-8.95L31.9-8.95Q32.1-9.85 32.55-11.28 33-12.7 33.3-14.23 33.6-15.75 33.6-17.23 33.6-18.7 33-19.65L33-19.65Q32.8-19.85 32.7-19.85L32.7-19.85Q32.6-19.85 32.65-19.65L32.65-19.65Q32.65-17.75 32.22-16.13 31.8-14.5 31.3-12.95L31.3-12.95Q30.45-10.4 29.75-7.98 29.05-5.55 29.15-3L29.15-3Q29.15-2.85 29.17-2.68 29.2-2.5 29.35-2.5L29.35-2.5Q29.45-2.5 29.5-2.6 29.55-2.7 29.65-2.9L29.65-2.9Q30.15-4.1 30.8-5.73 31.45-7.35 31.9-8.95ZM28.35 0L28.35 0Q27.4-1 26.9-2.23 26.4-3.45 26.2-4.73 26-6 26.1-7.3 26.2-8.6 26.5-9.75L26.5-9.75Q26.95-11.55 27.65-13.35 28.35-15.15 28.85-16.93 29.35-18.7 29.42-20.43 29.5-22.15 28.7-23.8L28.7-23.8Q28.55-24.05 28.5-24.05L28.5-24.05Q28.45-24.05 28.45-23.98 28.45-23.9 28.5-23.85L28.5-23.85Q28.65-22.35 28.3-20.75 27.95-19.15 27.4-17.48 26.85-15.8 26.17-14.03 25.5-12.25 25.05-10.4L25.05-10.4Q24.7-9.05 24.57-7.65 24.45-6.25 24.75-4.88 25.05-3.5 25.85-2.25 26.65-1 28.15 0.05L28.15 0.05Q28.25 0.15 28.4 0.18 28.55 0.2 28.35 0ZM28.75-1.9L28.75-1.9Q28.6-2.3 28.42-2.9 28.25-3.5 28.15-4.05L28.15-4.05Q28.05-4.25 27.9-4.8 27.75-5.35 27.65-5.35L27.65-5.35Q27.45-5.35 27.37-5 27.3-4.65 27.3-4.13 27.3-3.6 27.37-3.03 27.45-2.45 27.6-2.05L27.6-2.05Q27.9-1.05 28.32-0.65 28.75-0.25 29.45 0L29.45 0Q29.75 0.15 29.9 0.15L29.9 0.15Q29.95 0.15 29.92 0.08 29.9 0 29.85 0L29.85 0Q29.5-0.4 29.22-0.85 28.95-1.3 28.75-1.9ZM32.65-27.75L32.65-27.75Q32.4-27.75 31.87-27.83 31.35-27.9 31.35-28.3L31.35-28.3Q31.35-28.45 31.8-28.68 32.25-28.9 32.8-29.33 33.35-29.75 33.8-30.43 34.25-31.1 34.25-32.15L34.25-32.15Q34.25-33.45 33.75-34.1L33.75-34.1Q33.65-34.25 33.5-34.43 33.35-34.6 33.4-34.65L33.4-34.65Q33.5-34.65 33.62-34.58 33.75-34.5 33.8-34.45L33.8-34.45Q34.8-33.9 35.32-33.02 35.85-32.15 35.85-31.35L35.85-31.35Q35.85-29.75 35.1-28.75 34.35-27.75 32.65-27.75ZM30.8-29.75L30.8-29.75Q30.2-29.5 30.2-30.05L30.2-30.05Q30.2-30.45 30.5-30.83 30.8-31.2 31.07-31.65 31.35-32.1 31.45-32.68 31.55-33.25 31.15-34.1L31.15-34.1Q31.05-34.35 30.8-34.65 30.55-34.95 30.65-35L30.65-35Q30.75-35.05 31.07-34.93 31.4-34.8 31.5-34.75L31.5-34.75Q32.35-34.35 32.77-33.55 33.2-32.75 33.2-32.15L33.2-32.15Q33.2-31.2 32.42-30.58 31.65-29.95 30.8-29.75ZM29.35-32.45L29.35-32.45Q29.35-32.7 29.5-33.02 29.65-33.35 30-33.35L30-33.35Q30.25-33.35 30.4-33.02 30.55-32.7 30.55-32.45L30.55-32.45Q30.55-32.25 30.4-31.93 30.25-31.6 30-31.6L30-31.6Q29.65-31.6 29.5-31.9 29.35-32.2 29.35-32.45ZM41.05-16.65L41.05-16.65Q40.65-14.95 39.92-13.08 39.2-11.2 38.3-9.6L38.3-9.6Q38.3-9.5 38.17-9.28 38.05-9.05 37.84-9.05L37.84-9.05Q37.75-9.05 37.72-9.35 37.7-9.65 37.75-9.75L37.75-9.75Q37.75-10.55 37.95-11.88 38.15-13.2 38.45-14.05L38.45-14.05Q38.55-14.35 38.77-15.5 39-16.65 39.17-18.07 39.34-19.5 39.37-20.83 39.4-22.15 39.05-22.8L39.05-22.8 39.05-23Q39.25-23.15 39.5-22.9L39.5-22.9Q40.15-22.35 40.52-21.55 40.9-20.75 41.07-19.88 41.25-19 41.22-18.15 41.2-17.3 41.05-16.65ZM43-16.85L43-16.85Q43.55-17.55 44.05-17.85 44.55-18.15 45.05-18.35L45.05-18.35Q45.09-18.35 45.3-18.4 45.5-18.45 45.59-18.3L45.59-18.3Q45.7-18.15 45.55-17.95 45.4-17.75 45.3-17.65L45.3-17.65Q44.95-17.3 44.52-16.88 44.09-16.45 43.75-16.05L43.75-16.05Q43.25-15.5 42.95-14.78 42.65-14.05 42.5-13.3L42.5-13.3Q43.34-14.2 44.12-15 44.9-15.8 45.8-16.5L45.8-16.5Q46.95-17.35 47.8-18.7 48.65-20.05 49-22.65L49-22.65Q49.09-22.9 49.25-22.95 49.4-23 49.4-22.6L49.4-22.6Q49.55-19.7 48.8-18 48.05-16.3 46.55-15.15L46.55-15.15Q45.75-14.55 44.95-13.85 44.15-13.15 43.42-12.3 42.7-11.45 42.09-10.3 41.5-9.15 41.05-7.65L41.05-7.65Q40.7-6.5 40.34-5.48 40-4.45 39.59-3.5L39.59-3.5Q39.5-3.15 39.3-3.15L39.3-3.15Q39.15-3.2 39.15-3.65L39.15-3.65Q38.9-6.05 39.47-8.43 40.05-10.8 40.84-13.35L40.84-13.35Q41.2-14.6 41.67-15.85 42.15-17.1 42.09-18.7L42.09-18.7Q42.09-19.25 42.55-19.85 43-20.45 43.65-20.98 44.3-21.5 45-21.88 45.7-22.25 46.2-22.4L46.2-22.4Q46.65-22.55 46.65-22.35 46.65-22.15 46.34-21.85L46.34-21.85Q45.3-20.9 44.22-19.6 43.15-18.3 43-16.85ZM38.65-0.05L38.65-0.05Q38.59 0 38.57-0.03 38.55-0.05 38.3-0.2L38.3-0.2Q36.8-1.3 35.95-2.6 35.09-3.9 34.72-5.28 34.34-6.65 34.4-8.03 34.45-9.4 34.75-10.7L34.75-10.7Q35.15-12.45 35.72-14.18 36.3-15.9 36.8-17.53 37.3-19.15 37.55-20.73 37.8-22.3 37.55-23.75L37.55-23.75Q37.55-23.85 37.7-23.9L37.7-23.9Q37.75-23.9 37.8-23.83 37.84-23.75 37.9-23.7L37.9-23.7Q38.84-22.1 38.84-20.43 38.84-18.75 38.4-17.03 37.95-15.3 37.27-13.53 36.59-11.75 36.2-9.95L36.2-9.95Q35.7-7.65 36.12-5.05 36.55-2.45 38.45-0.4L38.45-0.4Q38.55-0.25 38.65-0.2 38.75-0.15 38.65-0.05ZM40.15 0L40.15 0Q40.05 0 39.95-0.05L39.95-0.05 39.75-0.15Q39.05-0.6 38.5-1.13 37.95-1.65 37.55-2.65L37.55-2.65Q37.4-3 37.3-3.58 37.2-4.15 37.17-4.65 37.15-5.15 37.22-5.5 37.3-5.85 37.5-5.8L37.5-5.8Q37.65-5.8 37.82-5.4 38-5 38.09-4.6L38.09-4.6Q38.2-4.05 38.32-3.55 38.45-3.05 38.65-2.65L38.65-2.65Q39.2-1.4 40.09-0.25L40.09-0.25Q40.2 0 40.15 0ZM48.3-22.45L48.3-22.45Q48.3-21.4 47.7-20.6 47.09-19.8 46.25-19.25L46.25-19.25Q46.09-19.15 46.05-19.28 46-19.4 46-19.45L46-19.45Q46-19.75 46.25-20.18 46.5-20.6 46.82-21.08 47.15-21.55 47.45-22.05 47.75-22.55 47.84-22.95L47.84-22.95Q48-23.2 48.15-22.95 48.3-22.7 48.3-22.45ZM63.24-22.2L63.24-22.2Q63.29-22.15 63.29-21.98 63.29-21.8 63.24-21.7L63.24-21.7Q62.79-20.25 61.69-19.65 60.59-19.05 59.74-19.05L59.74-19.05Q58.69-19.05 57.59-19.23 56.49-19.4 55.49-20.15L55.49-20.15Q55.39-20.25 55.24-20.35 55.09-20.45 55.09-20.55L55.09-20.55Q55.09-20.7 55.24-20.78 55.39-20.85 55.49-20.9L55.49-20.9Q55.94-21 56.67-21.08 57.39-21.15 58.09-21.05L58.09-21.05Q58.59-20.95 59.29-20.95 59.99-20.95 60.72-21.05 61.44-21.15 62.04-21.38 62.64-21.6 62.94-22.05L62.94-22.05Q63.09-22.25 63.24-22.2ZM63.59-23.75L63.59-23.75 63.44-23.5Q62.59-22.4 61.64-22.08 60.69-21.75 59.64-21.8 58.59-21.85 57.52-22.08 56.44-22.3 55.39-22.35L55.39-22.35Q53.99-22.4 52.59-21.5 51.19-20.6 50.19-18.35L50.19-18.35Q50.04-18.05 49.99-18.23 49.94-18.4 49.99-18.55L49.99-18.55Q50.39-20.05 50.94-21.05 51.49-22.05 52.12-22.68 52.74-23.3 53.44-23.6 54.14-23.9 54.89-24L54.89-24Q55.74-26.85 56.22-29.58 56.69-32.3 56.29-34.75L56.29-34.75Q56.29-34.95 56.29-34.95L56.29-34.95Q56.39-35 56.49-34.9 56.59-34.8 56.59-34.75L56.59-34.75Q57.69-32.35 57.49-29.63 57.29-26.9 56.49-23.9L56.49-23.9Q56.74-23.85 56.89-23.85 57.04-23.85 57.24-23.85L57.24-23.85Q57.49-25.15 57.72-26.63 57.94-28.1 58.07-29.45 58.19-30.8 58.14-31.9 58.09-33 57.79-33.55L57.79-33.55Q57.64-34 57.79-34L57.79-34Q57.89-34 57.94-33.9 57.99-33.8 58.09-33.7L58.09-33.7Q58.79-33 59.19-31.8 59.59-30.6 59.74-29.25 59.89-27.9 59.84-26.58 59.79-25.25 59.54-24.25L59.54-24.25 59.34-23.45Q59.49-23.35 59.64-23.35 59.79-23.35 59.94-23.3L59.94-23.3Q60.24-24.8 60.47-26.3 60.69-27.8 60.64-29.45L60.64-29.45Q60.64-29.8 60.69-29.8L60.69-29.8Q60.79-29.8 60.84-29.65 60.89-29.5 60.94-29.4L60.94-29.4Q61.54-28.3 61.52-26.65 61.49-25 61.24-23.15L61.24-23.15Q62.34-23.15 63.34-23.75L63.34-23.75Q63.59-23.9 63.59-23.75ZM53.24-20.35L53.24-20.35Q53.24-20.1 52.97-19.85 52.69-19.6 52.54-19.5L52.54-19.5Q52.29-19.3 51.97-19.03 51.64-18.75 51.39-18.45L51.39-18.45Q51.14-18.05 50.92-17.75 50.69-17.45 50.54-16.9L50.54-16.9Q50.49-16.8 50.42-16.73 50.34-16.65 50.29-16.7L50.29-16.7Q50.14-16.85 50.29-17.35L50.29-17.35Q50.49-18.1 50.69-18.57 50.89-19.05 51.44-19.6L51.44-19.6Q51.64-19.8 51.94-20 52.24-20.2 52.54-20.35 52.84-20.5 53.04-20.5 53.24-20.5 53.24-20.35ZM57.14-0.25L57.14-0.25Q57.39-0.35 57.34-0.2 57.29-0.05 57.19 0L57.19 0Q56.29 0.3 55.29-0.1 54.29-0.5 53.44-1.35 52.59-2.2 51.99-3.33 51.39-4.45 51.24-5.55L51.24-5.55Q50.99-7.9 51.19-10.1 51.39-12.3 51.94-14.45L51.94-14.45 52.79-17.6Q52.49-17.6 52.19-17.75L52.19-17.75Q51.84-17.85 51.84-18L51.84-18Q51.84-18.1 52.19-18.3L52.19-18.3Q53.59-19 55.02-18.9 56.44-18.8 57.89-18.55L57.89-18.55Q58.79-18.4 59.72-18.32 60.64-18.25 61.74-18.7L61.74-18.7Q61.84-18.8 61.94-18.75L61.94-18.75Q62.04-18.65 61.89-18.4L61.89-18.4Q61.59-17.75 61.04-17.45 60.49-17.15 59.89-17L59.89-17Q59.49-15.7 59.19-14.68 58.89-13.65 58.69-12.95L58.69-12.95Q58.14-10.55 57.42-8.08 56.69-5.6 56.44-3.9L56.44-3.9Q56.34-3.35 56.24-3.3L56.24-3.3Q56.14-3.25 56.04-3.5 55.94-3.75 55.89-3.9L55.89-3.9Q55.69-5.35 55.82-6.93 55.94-8.5 56.29-10.15 56.64-11.8 57.09-13.48 57.54-15.15 58.04-16.85L58.04-16.85Q57.79-16.85 57.54-16.85 57.29-16.85 57.04-16.9L57.04-16.9Q56.64-15.85 56.22-14.83 55.79-13.8 55.39-12.9L55.39-12.9Q55.34-12.8 55.17-12.43 54.99-12.05 54.89-12.05L54.89-12.05Q54.69-12.1 54.74-12.53 54.79-12.95 54.79-13.1L54.79-13.1Q54.89-13.85 55.12-14.85 55.34-15.85 55.54-17L55.54-17Q55.29-17.05 54.99-17.07 54.69-17.1 54.39-17.2L54.39-17.2Q54.09-16.2 53.82-15.25 53.54-14.3 53.29-13.35L53.29-13.35Q52.89-11.6 52.69-9.63 52.49-7.65 52.69-5.55L52.69-5.55Q52.79-4.6 53.22-3.6 53.64-2.6 54.24-1.8 54.84-1 55.62-0.55 56.39-0.1 57.14-0.25ZM57.59-1.35L57.59-1.35Q57.84-1.55 57.89-1.38 57.94-1.2 57.69-1.05L57.69-1.05Q57.49-0.9 57.17-0.83 56.84-0.75 56.44-0.8 56.04-0.85 55.59-1.1 55.14-1.35 54.74-1.9L54.74-1.9Q54.39-2.35 54.17-3.2 53.94-4.05 53.84-4.88 53.74-5.7 53.79-6.3 53.84-6.9 54.04-6.9L54.04-6.9Q54.29-6.9 54.42-6.2 54.54-5.5 54.64-5.05L54.64-5.05Q54.84-4.25 55.19-3.4 55.54-2.55 55.94-2.05L55.94-2.05Q56.44-1.4 56.84-1.28 57.24-1.15 57.59-1.35ZM78.39-15.8L78.39-15.8Q77.79-13.95 76.97-12.25 76.14-10.55 75.24-8.85L75.24-8.85Q75.14-8.75 74.94-8.38 74.74-8 74.59-8.1L74.59-8.1Q74.49-8.1 74.52-8.4 74.54-8.7 74.54-8.85L74.54-8.85Q74.59-9.25 74.77-10 74.94-10.75 75.17-11.58 75.39-12.4 75.62-13.18 75.84-13.95 75.99-14.4L75.99-14.4Q76.84-17.1 77.09-19.2 77.34-21.3 76.79-22.75L76.79-22.75Q76.69-23 76.79-23L76.79-23Q76.89-23 76.99-22.9 77.09-22.8 77.14-22.75L77.14-22.75Q77.69-22.15 78.04-21.23 78.39-20.3 78.54-19.33 78.69-18.35 78.64-17.4 78.59-16.45 78.39-15.8ZM79.74-19.4L79.74-19.4Q80.39-18.4 80.34-16.9 80.29-15.4 79.97-13.8 79.64-12.2 79.17-10.75 78.69-9.3 78.44-8.45L78.44-8.45Q77.94-6.8 77.24-5.08 76.54-3.35 75.99-2.1L75.99-2.1Q75.79-1.65 75.69-1.7L75.69-1.7Q75.54-1.75 75.52-1.93 75.49-2.1 75.49-2.2L75.49-2.2Q75.49-4.9 76.27-7.4 77.04-9.9 77.94-12.45L77.94-12.45Q78.49-14.1 78.94-15.73 79.39-17.35 79.39-19.3L79.39-19.3Q79.39-19.65 79.49-19.65L79.49-19.65Q79.54-19.65 79.59-19.58 79.64-19.5 79.74-19.4ZM69.74-3.7L69.74-3.7Q69.84-3.55 69.39-3.25 68.94-2.95 68.79-2.9L68.79-2.9Q66.59-2.1 65.37-2.85 64.14-3.6 63.62-5.1 63.09-6.6 63.09-8.43 63.09-10.25 63.29-11.7L63.29-11.7Q63.44-12.95 63.87-14.48 64.29-16 64.89-17.48 65.49-18.95 66.27-20.23 67.04-21.5 67.94-22.2L67.94-22.2Q68.04-22.25 68.17-22.35 68.29-22.45 68.39-22.45L68.39-22.45Q68.54-22.4 68.24-21.9L68.24-21.9Q67.94-21.4 67.52-20.5 67.09-19.6 66.64-18.43 66.19-17.25 65.77-15.95 65.34-14.65 65.09-13.35L65.09-13.35Q64.84-12.05 64.74-10.85 64.64-9.65 64.64-8.7 64.64-7.75 64.69-7.1 64.74-6.45 64.79-6.25L64.79-6.25Q65.14-4.7 66.12-3.98 67.09-3.25 68.74-3.55L68.74-3.55Q68.79-3.55 69.24-3.65 69.69-3.75 69.74-3.7ZM76.19 0.15L76.19 0.15Q76.39 0.35 76.39 0.45L76.39 0.45Q76.39 0.55 76.17 0.5 75.94 0.45 75.84 0.4L75.84 0.4Q75.44 0.2 74.84-0.18 74.24-0.55 73.94-1.5L73.94-1.5Q73.79-1.9 73.74-2.48 73.69-3.05 73.69-3.55 73.69-4.05 73.79-4.38 73.89-4.7 74.04-4.65L74.04-4.65Q74.14-4.6 74.27-4.2 74.39-3.8 74.49-3.35L74.49-3.35Q74.59-2.8 74.74-2.33 74.89-1.85 75.09-1.35L75.09-1.35Q75.34-0.8 75.59-0.48 75.84-0.15 76.19 0.15ZM71.59-2.6L71.59-2.6Q71.04-1.75 69.92-0.88 68.79 0 66.89 0L66.89 0Q65.39 0 64.31-0.8 63.24-1.6 62.57-2.8 61.89-4 61.62-5.43 61.34-6.85 61.34-8.15L61.34-8.15Q61.39-9.75 61.62-11.35 61.84-12.95 62.22-14.35 62.59-15.75 63.07-16.85 63.54-17.95 64.04-18.65L64.04-18.65Q64.14-18.7 64.27-18.88 64.39-19.05 64.49-18.95L64.49-18.95Q64.54-18.9 64.47-18.73 64.39-18.55 64.34-18.45L64.34-18.45Q63.89-16.95 63.47-15.28 63.04-13.6 62.79-11.9 62.54-10.2 62.54-8.55 62.54-6.9 62.84-5.5L62.84-5.5Q63.04-4.55 63.57-3.75 64.09-2.95 64.72-2.4 65.34-1.85 66.06-1.6 66.79-1.35 67.49-1.45L67.49-1.45Q68.94-1.65 69.69-2.27 70.44-2.9 70.77-3.78 71.09-4.65 71.17-5.68 71.24-6.7 71.39-7.75L71.39-7.75Q71.14-7.05 70.42-6.38 69.69-5.7 68.87-5.33 68.04-4.95 67.27-5 66.49-5.05 66.09-5.9L66.09-5.9Q65.59-7 65.54-8.3 65.49-9.6 65.59-11.15L65.59-11.15Q65.69-12.7 66.04-14.35 66.39-16 66.99-17.53 67.59-19.05 68.42-20.4 69.24-21.75 70.29-22.8L70.29-22.8 70.49-23Q70.64-23.15 70.79-23.15L70.79-23.15Q70.79-23.15 70.59-22.65L70.59-22.65Q69.14-19.95 68.14-17.07 67.14-14.2 66.94-11.25L66.94-11.25Q66.69-8 67.27-7 67.84-6 68.69-6.43 69.54-6.85 70.52-8.28 71.49-9.7 72.09-11.35L72.09-11.35Q72.64-12.85 73.27-14.45 73.89-16.05 74.42-17.68 74.94-19.3 75.22-20.85 75.49-22.4 75.34-23.75L75.34-23.75Q75.34-24 75.44-24L75.44-24Q75.49-24 75.49-23.95L75.49-23.95Q75.49-23.85 75.54-23.85L75.54-23.85Q75.59-23.8 75.59-23.75L75.59-23.75Q76.39-22.05 76.31-20.3 76.24-18.55 75.72-16.75 75.19-14.95 74.47-13.08 73.74-11.2 73.24-9.3L73.24-9.3Q72.94-8.1 72.79-6.78 72.64-5.45 72.74-4.15 72.84-2.85 73.29-1.68 73.74-0.5 74.59 0.3L74.59 0.3Q74.69 0.4 74.69 0.45L74.69 0.45Q74.69 0.55 74.56 0.53 74.44 0.5 74.34 0.45L74.34 0.45Q73.39 0.1 72.69-0.7 71.99-1.5 71.59-2.6ZM101.04-17.6L101.04-17.6Q100.64-15.6 99.69-13.6 98.74-11.6 97.89-9.85L97.89-9.85Q97.84-9.75 97.66-9.5 97.49-9.25 97.39-9.25L97.39-9.25Q97.24-9.3 97.24-9.58 97.24-9.85 97.24-9.95L97.24-9.95Q97.29-10.4 97.41-11.03 97.54-11.65 97.64-12.33 97.74-13 97.86-13.63 97.99-14.25 98.14-14.75L98.14-14.75Q98.59-16.45 98.89-17.68 99.19-18.9 99.34-19.9 99.49-20.9 99.51-21.8 99.54-22.7 99.39-23.75L99.39-23.75Q99.34-24.15 99.44-24.25L99.44-24.25Q99.54-24.3 99.69-24.15 99.84-24 99.94-23.85L99.94-23.85Q100.79-22.5 101.09-20.88 101.39-19.25 101.04-17.6ZM102.04-21.25L102.24-20.95Q102.89-20 102.89-18.45 102.89-16.9 102.59-15.28 102.29-13.65 101.84-12.15 101.39-10.65 101.19-9.75L101.19-9.75Q100.79-8 100.09-6.25 99.39-4.5 98.89-3.15L98.89-3.15Q98.84-3 98.74-2.83 98.64-2.65 98.54-2.65L98.54-2.65Q98.44-2.65 98.44-2.85 98.44-3.05 98.44-3.2L98.44-3.2Q98.29-5.95 99.04-8.58 99.79-11.2 100.64-13.9L100.64-13.9Q101.14-15.55 101.59-17.28 102.04-19 101.99-21.05L101.99-21.05Q101.99-21.25 102.04-21.25L102.04-21.25ZM97.54-21.8L97.54-21.8Q94.49-20.55 92.36-18.23 90.24-15.9 89.09-13L89.09-13Q88.59-11.7 88.34-10.68 88.09-9.65 87.94-8.45L87.94-8.45Q87.89-8.2 88.09-7.95 88.29-7.7 88.49-7.95L88.49-7.95Q89.39-9.05 90.79-10.75 92.19-12.45 93.59-14.35 94.99-16.25 96.11-18.2 97.24-20.15 97.54-21.8ZM94.19-4.85L94.19-4.85Q93.44-3.8 92.74-2.9 92.04-2 91.19-1.33 90.34-0.65 89.29-0.25 88.24 0.15 86.89 0.2L86.89 0.2Q84.64 0.3 83.46-0.95 82.29-2.2 81.84-4 81.39-5.8 81.51-7.73 81.64-9.65 82.04-10.9L82.04-10.9Q82.59-12.65 83.36-14.23 84.14-15.8 85.01-17.07 85.89-18.35 86.81-19.28 87.74-20.2 88.64-20.7L88.64-20.7Q88.69-20.7 88.86-20.8 89.04-20.9 89.04-20.75L89.04-20.75Q89.09-20.75 88.99-20.6 88.89-20.45 88.79-20.35L88.79-20.35Q86.19-17.65 84.66-14.25 83.14-10.85 82.94-7.25L82.94-7.25Q82.89-6.35 83.01-5.3 83.14-4.25 83.51-3.33 83.89-2.4 84.59-1.78 85.29-1.15 86.49-1.15L86.49-1.15Q87.44-1.15 88.24-1.48 89.04-1.8 89.74-2.33 90.44-2.85 91.01-3.48 91.59-4.1 92.04-4.65L92.04-4.65Q93.04-5.9 93.89-7.25L93.89-7.25Q93.89-8.25 94.01-9.2 94.14-10.15 94.39-11.1L94.39-11.1Q94.54-11.8 94.66-12.23 94.79-12.65 94.91-13.03 95.04-13.4 95.16-13.83 95.29-14.25 95.54-14.95L95.54-14.95Q94.74-13.55 93.96-12.33 93.19-11.1 92.31-9.98 91.44-8.85 90.51-7.78 89.59-6.7 88.49-5.6L88.49-5.6Q87.64-4.75 87.09-5.05 86.54-5.35 86.44-6.45L86.44-6.45Q86.34-8.15 86.61-9.75 86.89-11.35 87.59-13.1L87.59-13.1Q88.24-14.7 89.21-16.2 90.19-17.7 91.46-18.93 92.74-20.15 94.29-21.03 95.84-21.9 97.59-22.2L97.59-22.2Q97.69-22.75 97.76-23.15 97.84-23.55 97.89-23.95L97.89-23.95Q97.99-24.5 97.99-24.5L97.99-24.5Q98.09-24.55 98.21-24.4 98.34-24.25 98.44-24L98.44-24Q99.04-22.35 98.84-20.7 98.64-19.05 98.11-17.35 97.59-15.65 96.89-13.88 96.19-12.1 95.74-10.3L95.74-10.3Q95.14-7.75 95.41-5.03 95.69-2.3 97.54-0.1L97.54-0.1Q97.69 0.1 97.69 0.1L97.69 0.1Q97.64 0.15 97.39 0L97.39 0Q95.94-0.9 95.21-2.18 94.49-3.45 94.19-4.85ZM95.94-22.55L95.94-22.55Q96.04-22.45 95.91-22.4 95.79-22.35 95.39-22.25L95.39-22.25Q94.74-22.05 93.81-21.5 92.89-20.95 91.86-20.1 90.84-19.25 89.84-18.13 88.84-17 88.09-15.7L88.09-15.7Q87.34-14.35 86.81-13.05 86.29-11.75 85.96-10.68 85.64-9.6 85.49-8.83 85.34-8.05 85.34-7.75L85.34-7.75Q85.34-7 85.34-6.18 85.34-5.35 85.54-4.7 85.74-4.05 86.24-3.7 86.74-3.35 87.74-3.5L87.74-3.5Q87.79-3.5 87.99-3.58 88.19-3.65 88.39-3.73 88.59-3.8 88.76-3.85 88.94-3.9 88.99-3.9L88.99-3.9Q89.04-3.8 88.91-3.65 88.79-3.5 88.59-3.33 88.39-3.15 88.21-3 88.04-2.85 87.99-2.8L87.99-2.8Q86.74-2.05 85.89-2.35 85.04-2.65 84.56-3.48 84.09-4.3 83.91-5.43 83.74-6.55 83.79-7.45L83.79-7.45Q83.89-9.2 84.34-10.93 84.79-12.65 85.49-14.4L85.49-14.4Q86.04-15.75 87.14-17.18 88.24-18.6 89.61-19.8 90.99-21 92.49-21.78 93.99-22.55 95.39-22.6L95.39-22.6Q95.89-22.6 95.94-22.55ZM98.89-0.1L98.89-0.1Q98.99 0.05 98.94 0.1L98.94 0.1Q98.79 0.1 98.54 0L98.54 0Q98.39-0.1 97.74-0.6 97.09-1.1 96.79-2.2L96.79-2.2Q96.69-2.6 96.61-3.23 96.54-3.85 96.54-4.4 96.54-4.95 96.61-5.35 96.69-5.75 96.84-5.75L96.84-5.75Q96.99-5.75 97.16-5.15 97.34-4.55 97.39-4.4L97.39-4.4Q97.54-3.7 97.66-3.18 97.79-2.65 97.94-2.2L97.94-2.2Q98.14-1.65 98.46-0.95 98.79-0.25 98.89-0.1ZM112.84-26.05L112.84-26.05Q113.14-27.15 113.24-28.73 113.34-30.3 113.24-31.88 113.14-33.45 112.76-34.85 112.39-36.25 111.64-37L111.64-37Q111.34-37.3 111.16-37.2 110.99-37.1 111.24-36.7L111.24-36.7Q111.74-35.8 111.71-33.93 111.69-32.05 111.39-29.85 111.09-27.65 110.59-25.45 110.09-23.25 109.59-21.6L109.59-21.6Q109.34-20.9 109.09-19.85 108.84-18.8 108.56-17.73 108.29-16.65 108.09-15.63 107.89-14.6 107.79-13.9L107.79-13.9Q107.79-13.75 107.74-13.33 107.69-12.9 107.84-12.8L107.84-12.8Q107.94-12.8 108.14-13.23 108.34-13.65 108.39-13.75L108.39-13.75Q109.59-16.55 110.84-19.73 112.09-22.9 112.84-26.05ZM111.69-13.85L111.69-13.85Q111.94-14.75 112.39-16.2 112.84-17.65 113.29-19.38 113.74-21.1 114.16-22.98 114.59-24.85 114.81-26.63 115.04-28.4 114.96-29.9 114.89-31.4 114.44-32.35L114.44-32.35Q114.39-32.5 114.24-32.65 114.09-32.8 114.09-32.4L114.09-32.4Q114.19-29.2 113.44-26 112.69-22.8 111.84-20.2L111.84-20.2Q111.19-18.15 110.51-16.1 109.84-14.05 109.36-12.03 108.89-10 108.76-8.05 108.64-6.1 109.14-4.3L109.14-4.3Q109.34-3.65 109.49-3.65L109.49-3.65Q109.64-3.7 109.64-4.3L109.64-4.3Q109.64-5.2 109.81-6.33 109.99-7.45 110.29-8.7 110.59-9.95 110.94-11.28 111.29-12.6 111.69-13.85ZM110.74-0.15L110.74-0.15Q108.99-0.35 107.61-1.9 106.24-3.45 105.79-5.7L105.79-5.7Q105.34-7.85 105.56-10.08 105.79-12.3 106.34-14.25L106.34-14.25Q107.14-17.25 108.24-20.43 109.34-23.6 110.11-26.7 110.89-29.8 110.99-32.68 111.09-35.55 109.99-37.95L109.99-37.95Q109.89-38 109.84-38.18 109.79-38.35 109.69-38.3L109.69-38.3Q109.54-38.3 109.64-37.95L109.64-37.95Q110.04-35.65 109.69-32.98 109.34-30.3 108.56-27.43 107.79-24.55 106.81-21.5 105.84-18.45 104.99-15.4L104.99-15.4Q104.34-13.15 104.11-10.63 103.89-8.1 104.44-5.55L104.44-5.55Q104.74-4.25 105.36-3.2 105.99-2.15 106.84-1.43 107.69-0.7 108.69-0.3 109.69 0.1 110.74 0.05L110.74 0.05 110.89 0.05Q110.94 0.05 111.04 0L111.04 0Q111.04-0.15 110.74-0.15ZM109.24-2.65L109.24-2.65Q108.34-3.7 107.79-5.35L107.79-5.35Q107.74-5.5 107.64-5.83 107.54-6.15 107.44-6.48 107.34-6.8 107.24-7.08 107.14-7.35 107.09-7.35L107.09-7.35Q106.89-7.35 106.89-6.7 106.89-6.05 107.04-5.2 107.19-4.35 107.49-3.48 107.79-2.6 108.19-2.1L108.19-2.1Q108.99-1.2 109.81-1 110.64-0.8 111.49-0.8L111.49-0.8Q111.79-0.8 111.96-0.98 112.14-1.15 111.69-1.25L111.69-1.25Q110.24-1.4 109.24-2.65ZM116.38 0.8L116.38 0.8Q116.03 1.15 115.93 1.1L115.93 1.1Q115.83 1.05 115.93 0.88 116.03 0.7 116.08 0.6L116.08 0.6Q116.48 0.15 116.71-0.08 116.93-0.3 117.23-0.55L117.23-0.55Q116.03-2.15 115.48-3.98 114.93-5.8 114.83-7.75 114.73-9.7 115.01-11.7 115.28-13.7 115.73-15.6L115.73-15.6Q116.63-19.35 117.81-22.93 118.98-26.5 119.78-29.8L119.78-29.8Q118.18-29.5 116.91-29 115.63-28.5 115.23-27.9L115.23-27.9Q115.08-27.65 114.96-27.7 114.83-27.75 115.03-28.15L115.03-28.15Q115.43-29 116.48-29.68 117.53-30.35 118.88-30.8 120.23-31.25 121.81-31.5 123.38-31.75 124.83-31.7L124.83-31.7Q128.08-31.6 130.26-30.45 132.43-29.3 132.48-27.05L132.48-27.05Q132.48-25.65 131.51-24.25 130.53-22.85 129.16-21.63 127.78-20.4 126.23-19.43 124.68-18.45 123.58-17.9L123.58-17.9 123.38-17.2Q124.13-17.85 125.38-18.25 126.63-18.65 128.01-18.65 129.38-18.65 130.71-18.18 132.03-17.7 133.03-16.65L133.03-16.65Q134.38-15.15 134.76-13.23 135.13-11.3 134.53-9.45L134.53-9.45Q133.98-7.6 132.68-6.43 131.38-5.25 130.03-4.65L130.03-4.65Q129.88-4.55 129.48-4.42 129.08-4.3 128.98-4.45L128.98-4.45Q128.93-4.55 129.23-4.83 129.53-5.1 129.68-5.2L129.68-5.2Q131.03-6.1 131.98-7.65 132.93-9.2 133.16-10.88 133.38-12.55 132.78-14.1 132.18-15.65 130.43-16.5L130.43-16.5Q129.73-16.85 128.58-17.03 127.43-17.2 126.28-17.13 125.13-17.05 124.16-16.6 123.18-16.15 122.78-15.2L122.78-15.2Q123.68-15.75 124.83-16.05 125.98-16.35 127.16-16.32 128.33-16.3 129.38-15.88 130.43-15.45 131.13-14.6L131.13-14.6Q131.98-13.55 132.11-12.4 132.23-11.25 131.86-10.15 131.48-9.05 130.66-8.1 129.83-7.15 128.78-6.5L128.78-6.5Q127.38-5.65 125.68-4.83 123.98-4 122.28-3.13 120.58-2.25 119.03-1.28 117.48-0.3 116.38 0.8ZM122.38-13.5L122.38-13.5Q121.48-11.25 120.91-8.97 120.33-6.7 119.63-4.8L119.63-4.8Q119.38-4.15 119.28-4.2L119.28-4.2Q119.13-4.25 119.13-4.48 119.13-4.7 119.13-4.95L119.13-4.95Q119.28-8.75 120.23-12.48 121.18-16.2 122.28-20L122.28-20Q122.98-22.35 123.61-24.83 124.23-27.3 124.33-30.15L124.33-30.15 123.48-30.15Q123.53-28.8 123.41-27.48 123.28-26.15 123.03-25.2L123.03-25.2Q122.33-22.5 121.33-19.6 120.33-16.7 119.23-14.1L119.23-14.1Q119.18-14 119.01-13.63 118.83-13.25 118.68-13.3L118.68-13.3Q118.58-13.35 118.56-13.75 118.53-14.15 118.58-14.3L118.58-14.3Q118.63-14.9 118.81-15.8 118.98-16.7 119.16-17.65 119.33-18.6 119.56-19.5 119.78-20.4 119.98-21.05L119.98-21.05Q120.03-21.3 120.26-22.2 120.48-23.1 120.73-24.38 120.98-25.65 121.26-27.13 121.53-28.6 121.73-30L121.73-30Q121.33-30 121.13-29.95L121.13-29.95Q120.88-28.1 120.41-26.2 119.93-24.3 119.33-22.35 118.73-20.4 118.13-18.48 117.53-16.55 117.08-14.6L117.08-14.6Q116.68-12.95 116.48-11.15 116.28-9.35 116.28-7.58 116.28-5.8 116.58-4.1 116.88-2.4 117.53-0.85L117.53-0.85 117.98-1.3Q117.83-1.65 117.68-2.15 117.53-2.65 117.43-3.35L117.43-3.35Q117.33-3.9 117.31-4.75 117.28-5.6 117.33-6.4 117.38-7.2 117.48-7.75 117.58-8.3 117.78-8.3L117.78-8.3Q117.83-8.3 117.91-8.05 117.98-7.8 118.03-7.45 118.08-7.1 118.13-6.8 118.18-6.5 118.18-6.35L118.18-6.35Q118.23-5.9 118.28-5.35 118.33-4.8 118.41-4.2 118.48-3.6 118.56-3.03 118.63-2.45 118.78-2.05L118.78-2.05Q119.93-3.1 121.23-3.93 122.53-4.75 123.81-5.45 125.08-6.15 126.28-6.8 127.48-7.45 128.38-8.1L128.38-8.1Q129.93-9.15 130.38-10.78 130.83-12.4 129.83-13.7L129.83-13.7Q129.18-14.55 128.06-14.9 126.93-15.25 125.76-15.18 124.58-15.1 123.63-14.65 122.68-14.2 122.38-13.5ZM130.33-21.15L130.33-21.15Q130.43-21.1 130.11-20.63 129.78-20.15 129.68-19.95L129.68-19.95Q131.38-20.2 132.71-21.15 134.03-22.1 134.83-23.43 135.63-24.75 135.83-26.33 136.03-27.9 135.53-29.5L135.53-29.5Q135.03-31.1 133.88-32.2 132.73-33.3 131.23-34 129.73-34.7 127.98-35 126.23-35.3 124.48-35.27 122.73-35.25 121.13-34.95 119.53-34.65 118.33-34.1L118.33-34.1Q118.08-34 118.06-34 118.03-34 117.98-34.05L117.98-34.05Q117.93-34.2 118.23-34.4L118.23-34.4Q119.48-35.5 121.41-36.05 123.33-36.6 125.46-36.6 127.58-36.6 129.73-36.02 131.88-35.45 133.61-34.27 135.33-33.1 136.46-31.28 137.58-29.45 137.68-27L137.68-27Q137.73-25.5 137.28-24.28 136.83-23.05 136.08-22.1 135.33-21.15 134.36-20.48 133.38-19.8 132.33-19.35L132.33-19.35Q133.98-18.6 135.18-17.03 136.38-15.45 136.88-13.9L136.88-13.9Q137.48-11.85 137.16-10 136.83-8.15 136.06-6.65 135.28-5.15 134.31-4.08 133.33-3 132.63-2.55L132.63-2.55Q131.18-1.6 129.68-1.07 128.18-0.55 126.73-0.28 125.28 0 123.96 0.1 122.63 0.2 121.58 0.25L121.58 0.25Q120.78 0.35 120.78 0.2L120.78 0.2Q120.73 0.1 121.06 0.03 121.38-0.05 121.63-0.1L121.63-0.1Q123.58-0.45 125.48-1.05 127.38-1.65 129.33-2.65L129.33-2.65Q130.28-3.15 131.31-3.83 132.33-4.5 133.21-5.43 134.08-6.35 134.71-7.5 135.33-8.65 135.53-10.05L135.53-10.05Q135.78-11.8 135.46-13.53 135.13-15.25 133.78-16.85L133.78-16.85Q132.48-18.4 131.06-18.95 129.63-19.5 127.98-19.4L127.98-19.4Q127.58-19.4 127.58-19.45L127.58-19.45Q127.58-19.55 128.13-19.8 128.68-20.05 128.83-20.15L128.83-20.15Q129.28-20.45 129.78-20.85 130.28-21.25 130.33-21.15ZM130.93-26.85L130.93-26.85Q130.93-28.45 129.23-29.18 127.53-29.9 124.53-30.15L124.53-30.15Q124.88-28.6 124.98-27.3 125.08-26 124.96-24.73 124.83-23.45 124.51-22.08 124.18-20.7 123.78-19.05L123.78-19.05Q124.83-19.55 126.08-20.58 127.33-21.6 128.41-22.73 129.48-23.85 130.21-24.98 130.93-26.1 130.93-26.85ZM124.03-34.5L124.03-34.5Q125.73-34.6 127.91-34.13 130.08-33.65 131.83-32.6L131.83-32.6Q132.73-32.05 133.33-31.25 133.93-30.45 134.26-29.58 134.58-28.7 134.63-27.8 134.68-26.9 134.43-26.15L134.43-26.15Q134.38-26.05 134.33-25.88 134.28-25.7 134.18-25.53 134.08-25.35 133.98-25.23 133.88-25.1 133.78-25.15L133.78-25.15Q133.63-25.15 133.66-25.5 133.68-25.85 133.78-26.25L133.78-26.25Q134.03-27.65 133.56-28.7 133.08-29.75 132.13-30.48 131.18-31.2 129.93-31.65 128.68-32.1 127.36-32.35 126.03-32.6 124.78-32.63 123.53-32.65 122.63-32.55L122.63-32.55Q121.38-32.4 120.16-32.08 118.93-31.75 117.88-31.35 116.83-30.95 116.08-30.5 115.33-30.05 115.03-29.65L115.03-29.65Q114.73-29.25 114.68-29.4L114.68-29.4Q114.68-29.55 114.78-29.85L114.78-29.85Q115.13-30.85 116.08-31.68 117.03-32.5 118.28-33.1 119.53-33.7 121.03-34.05 122.53-34.4 124.03-34.5ZM121.58-0.8L121.58-0.8Q119.93-0.15 118.96 0.35 117.98 0.85 117.03 1.65L117.03 1.65Q116.93 1.7 116.83 1.85 116.73 2 116.63 1.95L116.63 1.95Q116.53 1.9 116.63 1.68 116.73 1.45 116.83 1.35L116.83 1.35Q117.33 0.65 118.13-0.03 118.93-0.7 120.38-1.3L120.38-1.3Q120.88-1.5 121.51-1.73 122.13-1.95 122.71-2.1 123.28-2.25 123.66-2.3 124.03-2.35 124.13-2.2L124.13-2.2Q124.18-2.1 123.83-1.9 123.48-1.7 123.03-1.48 122.58-1.25 122.16-1.05 121.73-0.85 121.58-0.8ZM155.28-13.85L155.28-13.85Q155.43-15.2 155.33-16.7 155.23-18.2 154.71-19.48 154.18-20.75 153.11-21.6 152.03-22.45 150.28-22.45L150.28-22.45Q147.93-22.45 146.18-21.18 144.43-19.9 143.18-18.03 141.93-16.15 141.23-14.03 140.53-11.9 140.33-10.15L140.33-10.15Q140.03-7.75 140.26-6 140.48-4.25 141.08-3.13 141.68-2 142.61-1.45 143.53-0.9 144.63-0.9L144.63-0.9Q146.18-0.85 147.91-1.78 149.63-2.7 151.13-4.38 152.63-6.05 153.76-8.47 154.88-10.9 155.28-13.85ZM139.18-10.4L139.18-10.4Q139.38-12.4 140.18-14.8 140.98-17.2 142.41-19.25 143.83-21.3 145.83-22.68 147.83-24.05 150.48-24.05L150.48-24.05Q152.48-24.05 153.78-23.1 155.08-22.15 155.78-20.68 156.48-19.2 156.68-17.48 156.88-15.75 156.68-14.2L156.68-14.2Q156.23-10.6 154.93-7.95 153.63-5.3 151.88-3.53 150.13-1.75 148.18-0.88 146.23 0 144.43 0L144.43 0Q143.08 0 142.01-0.6 140.93-1.2 140.21-2.48 139.48-3.75 139.21-5.73 138.93-7.7 139.18-10.4ZM144.78-3.35L144.78-3.35Q144.53-3.35 144.28-3.53 144.03-3.7 143.88-3.95 143.73-4.2 143.68-4.45 143.63-4.7 143.88-4.8L143.88-4.8Q144.03-4.85 144.28-4.45 144.53-4.05 144.83-4.05L144.83-4.05Q145.33-4.05 146.01-4.7 146.68-5.35 147.31-6.23 147.93-7.1 148.41-7.95 148.88-8.8 149.08-9.2L149.08-9.2Q149.28-9.6 149.48-10.23 149.68-10.85 149.86-11.5 150.03-12.15 150.16-12.78 150.28-13.4 150.33-13.85L150.33-13.85Q150.58-16.1 150.23-17.32 149.88-18.55 149.08-18.55L149.08-18.55Q148.48-18.55 147.83-18.18 147.18-17.8 146.61-17.2 146.03-16.6 145.58-15.88 145.13-15.15 144.93-14.4L144.93-14.4Q144.68-13.55 144.58-13.55L144.58-13.55Q144.43-13.55 144.43-14.4L144.43-14.4Q144.58-15.35 145.08-16.28 145.58-17.2 146.33-17.93 147.08-18.65 147.98-19.13 148.88-19.6 149.83-19.6L149.83-19.6Q150.78-19.6 151.26-18.93 151.73-18.25 151.93-17.28 152.13-16.3 152.11-15.28 152.08-14.25 151.98-13.65L151.98-13.65Q151.78-12.3 151.36-11.03 150.93-9.75 150.33-8.45L150.33-8.45Q150.03-7.85 149.43-6.98 148.83-6.1 148.06-5.3 147.28-4.5 146.41-3.93 145.53-3.35 144.78-3.35ZM146.38-2.4L146.38-2.4Q146.43-2.1 145.91-1.9 145.38-1.7 144.83-1.7L144.83-1.7Q143.28-1.75 142.46-2.7 141.63-3.65 141.31-4.95 140.98-6.25 141.01-7.65 141.03-9.05 141.13-10L141.13-10Q141.33-11.65 141.93-13.7 142.53-15.75 143.63-17.55 144.73-19.35 146.33-20.58 147.93-21.8 150.13-21.8L150.13-21.8Q151.58-21.8 152.46-21.05 153.33-20.3 153.76-19.2 154.18-18.1 154.26-16.82 154.33-15.55 154.18-14.5L154.18-14.5Q154.08-13.35 153.83-12.4 153.58-11.45 153.13-10.3L153.13-10.3Q152.98-9.95 152.73-9.5 152.48-9.05 152.18-9.1L152.18-9.1Q152.03-9.15 152.11-9.5 152.18-9.85 152.31-10.38 152.43-10.9 152.58-11.48 152.73-12.05 152.78-12.55L152.78-12.55Q152.88-13.4 152.91-14.68 152.93-15.95 152.71-17.15 152.48-18.35 151.88-19.2 151.28-20.05 150.08-20.05L150.08-20.05Q148.33-20.05 146.86-18.93 145.38-17.8 144.28-16.18 143.18-14.55 142.51-12.78 141.83-11 141.68-9.65L141.68-9.65Q141.58-8.85 141.63-7.65 141.68-6.45 142.01-5.28 142.33-4.1 143.08-3.25 143.83-2.4 145.13-2.35L145.13-2.35Q145.53-2.3 145.91-2.43 146.28-2.55 146.38-2.4ZM160.03 0.8L160.03 0.8Q159.68 1.15 159.58 1.1L159.58 1.1Q159.48 1.05 159.58 0.88 159.68 0.7 159.73 0.6L159.73 0.6Q160.13 0.15 160.35-0.08 160.58-0.3 160.88-0.55L160.88-0.55Q159.68-2.15 159.13-3.98 158.58-5.8 158.48-7.75 158.38-9.7 158.65-11.7 158.93-13.7 159.38-15.6L159.38-15.6Q160.28-19.35 161.45-22.93 162.63-26.5 163.43-29.8L163.43-29.8Q161.83-29.5 160.55-29 159.28-28.5 158.88-27.9L158.88-27.9Q158.73-27.65 158.6-27.7 158.48-27.75 158.68-28.15L158.68-28.15Q159.08-29 160.13-29.68 161.18-30.35 162.53-30.8 163.88-31.25 165.45-31.5 167.03-31.75 168.48-31.7L168.48-31.7Q171.73-31.6 173.9-30.45 176.08-29.3 176.13-27.05L176.13-27.05Q176.13-25.65 175.15-24.25 174.18-22.85 172.8-21.63 171.43-20.4 169.88-19.43 168.33-18.45 167.23-17.9L167.23-17.9 167.03-17.2Q167.78-17.85 169.03-18.25 170.28-18.65 171.65-18.65 173.03-18.65 174.35-18.18 175.68-17.7 176.68-16.65L176.68-16.65Q178.03-15.15 178.4-13.23 178.78-11.3 178.18-9.45L178.18-9.45Q177.63-7.6 176.33-6.43 175.03-5.25 173.68-4.65L173.68-4.65Q173.53-4.55 173.13-4.42 172.73-4.3 172.63-4.45L172.63-4.45Q172.58-4.55 172.88-4.83 173.18-5.1 173.33-5.2L173.33-5.2Q174.68-6.1 175.63-7.65 176.58-9.2 176.8-10.88 177.03-12.55 176.43-14.1 175.83-15.65 174.08-16.5L174.08-16.5Q173.38-16.85 172.23-17.03 171.08-17.2 169.93-17.13 168.78-17.05 167.8-16.6 166.83-16.15 166.43-15.2L166.43-15.2Q167.33-15.75 168.48-16.05 169.63-16.35 170.8-16.32 171.98-16.3 173.03-15.88 174.08-15.45 174.78-14.6L174.78-14.6Q175.63-13.55 175.75-12.4 175.88-11.25 175.5-10.15 175.13-9.05 174.3-8.1 173.48-7.15 172.43-6.5L172.43-6.5Q171.03-5.65 169.33-4.83 167.63-4 165.93-3.13 164.23-2.25 162.68-1.28 161.13-0.3 160.03 0.8ZM166.03-13.5L166.03-13.5Q165.13-11.25 164.55-8.97 163.98-6.7 163.28-4.8L163.28-4.8Q163.03-4.15 162.93-4.2L162.93-4.2Q162.78-4.25 162.78-4.48 162.78-4.7 162.78-4.95L162.78-4.95Q162.93-8.75 163.88-12.48 164.83-16.2 165.93-20L165.93-20Q166.63-22.35 167.25-24.83 167.88-27.3 167.98-30.15L167.98-30.15 167.13-30.15Q167.18-28.8 167.05-27.48 166.93-26.15 166.68-25.2L166.68-25.2Q165.98-22.5 164.98-19.6 163.98-16.7 162.88-14.1L162.88-14.1Q162.83-14 162.65-13.63 162.48-13.25 162.33-13.3L162.33-13.3Q162.23-13.35 162.2-13.75 162.18-14.15 162.23-14.3L162.23-14.3Q162.28-14.9 162.45-15.8 162.63-16.7 162.8-17.65 162.98-18.6 163.2-19.5 163.43-20.4 163.63-21.05L163.63-21.05Q163.68-21.3 163.9-22.2 164.13-23.1 164.38-24.38 164.63-25.65 164.9-27.13 165.18-28.6 165.38-30L165.38-30Q164.98-30 164.78-29.95L164.78-29.95Q164.53-28.1 164.05-26.2 163.58-24.3 162.98-22.35 162.38-20.4 161.78-18.48 161.18-16.55 160.73-14.6L160.73-14.6Q160.33-12.95 160.13-11.15 159.93-9.35 159.93-7.58 159.93-5.8 160.23-4.1 160.53-2.4 161.18-0.85L161.18-0.85 161.63-1.3Q161.48-1.65 161.33-2.15 161.18-2.65 161.08-3.35L161.08-3.35Q160.98-3.9 160.95-4.75 160.93-5.6 160.98-6.4 161.03-7.2 161.13-7.75 161.23-8.3 161.43-8.3L161.43-8.3Q161.48-8.3 161.55-8.05 161.63-7.8 161.68-7.45 161.73-7.1 161.78-6.8 161.83-6.5 161.83-6.35L161.83-6.35Q161.88-5.9 161.93-5.35 161.98-4.8 162.05-4.2 162.13-3.6 162.2-3.03 162.28-2.45 162.43-2.05L162.43-2.05Q163.58-3.1 164.88-3.93 166.18-4.75 167.45-5.45 168.73-6.15 169.93-6.8 171.13-7.45 172.03-8.1L172.03-8.1Q173.58-9.15 174.03-10.78 174.48-12.4 173.48-13.7L173.48-13.7Q172.83-14.55 171.7-14.9 170.58-15.25 169.4-15.18 168.23-15.1 167.28-14.65 166.33-14.2 166.03-13.5ZM173.98-21.15L173.98-21.15Q174.08-21.1 173.75-20.63 173.43-20.15 173.33-19.95L173.33-19.95Q175.03-20.2 176.35-21.15 177.68-22.1 178.48-23.43 179.28-24.75 179.48-26.33 179.68-27.9 179.18-29.5L179.18-29.5Q178.68-31.1 177.53-32.2 176.38-33.3 174.88-34 173.38-34.7 171.63-35 169.88-35.3 168.13-35.27 166.38-35.25 164.78-34.95 163.18-34.65 161.98-34.1L161.98-34.1Q161.73-34 161.7-34 161.68-34 161.63-34.05L161.63-34.05Q161.58-34.2 161.88-34.4L161.88-34.4Q163.13-35.5 165.05-36.05 166.98-36.6 169.1-36.6 171.23-36.6 173.38-36.02 175.53-35.45 177.25-34.27 178.98-33.1 180.1-31.28 181.23-29.45 181.33-27L181.33-27Q181.38-25.5 180.93-24.28 180.48-23.05 179.73-22.1 178.98-21.15 178-20.48 177.03-19.8 175.98-19.35L175.98-19.35Q177.63-18.6 178.83-17.03 180.03-15.45 180.53-13.9L180.53-13.9Q181.13-11.85 180.8-10 180.48-8.15 179.7-6.65 178.93-5.15 177.95-4.08 176.98-3 176.28-2.55L176.28-2.55Q174.83-1.6 173.33-1.07 171.83-0.55 170.38-0.28 168.93 0 167.6 0.1 166.28 0.2 165.23 0.25L165.23 0.25Q164.43 0.35 164.43 0.2L164.43 0.2Q164.38 0.1 164.7 0.03 165.03-0.05 165.28-0.1L165.28-0.1Q167.23-0.45 169.13-1.05 171.03-1.65 172.98-2.65L172.98-2.65Q173.93-3.15 174.95-3.83 175.98-4.5 176.85-5.43 177.73-6.35 178.35-7.5 178.98-8.65 179.18-10.05L179.18-10.05Q179.43-11.8 179.1-13.53 178.78-15.25 177.43-16.85L177.43-16.85Q176.13-18.4 174.7-18.95 173.28-19.5 171.63-19.4L171.63-19.4Q171.23-19.4 171.23-19.45L171.23-19.45Q171.23-19.55 171.78-19.8 172.33-20.05 172.48-20.15L172.48-20.15Q172.93-20.45 173.43-20.85 173.93-21.25 173.98-21.15ZM174.58-26.85L174.58-26.85Q174.58-28.45 172.88-29.18 171.18-29.9 168.18-30.15L168.18-30.15Q168.53-28.6 168.63-27.3 168.73-26 168.6-24.73 168.48-23.45 168.15-22.08 167.83-20.7 167.43-19.05L167.43-19.05Q168.48-19.55 169.73-20.58 170.98-21.6 172.05-22.73 173.13-23.85 173.85-24.98 174.58-26.1 174.58-26.85ZM167.68-34.5L167.68-34.5Q169.38-34.6 171.55-34.13 173.73-33.65 175.48-32.6L175.48-32.6Q176.38-32.05 176.98-31.25 177.58-30.45 177.9-29.58 178.23-28.7 178.28-27.8 178.33-26.9 178.08-26.15L178.08-26.15Q178.03-26.05 177.98-25.88 177.93-25.7 177.83-25.53 177.73-25.35 177.63-25.23 177.53-25.1 177.43-25.15L177.43-25.15Q177.28-25.15 177.3-25.5 177.33-25.85 177.43-26.25L177.43-26.25Q177.68-27.65 177.2-28.7 176.73-29.75 175.78-30.48 174.83-31.2 173.58-31.65 172.33-32.1 171-32.35 169.68-32.6 168.43-32.63 167.18-32.65 166.28-32.55L166.28-32.55Q165.03-32.4 163.8-32.08 162.58-31.75 161.53-31.35 160.48-30.95 159.73-30.5 158.98-30.05 158.68-29.65L158.68-29.65Q158.38-29.25 158.33-29.4L158.33-29.4Q158.33-29.55 158.43-29.85L158.43-29.85Q158.78-30.85 159.73-31.68 160.68-32.5 161.93-33.1 163.18-33.7 164.68-34.05 166.18-34.4 167.68-34.5ZM165.23-0.8L165.23-0.8Q163.58-0.15 162.6 0.35 161.63 0.85 160.68 1.65L160.68 1.65Q160.58 1.7 160.48 1.85 160.38 2 160.28 1.95L160.28 1.95Q160.18 1.9 160.28 1.68 160.38 1.45 160.48 1.35L160.48 1.35Q160.98 0.65 161.78-0.03 162.58-0.7 164.03-1.3L164.03-1.3Q164.53-1.5 165.15-1.73 165.78-1.95 166.35-2.1 166.93-2.25 167.3-2.3 167.68-2.35 167.78-2.2L167.78-2.2Q167.83-2.1 167.48-1.9 167.13-1.7 166.68-1.48 166.23-1.25 165.8-1.05 165.38-0.85 165.23-0.8Z" opacity="1" transform="matrix(1,0,0,1,0,0)" fill="#d94e28" class="wordmark-text-0" data-fill-palette-color="primary" id="text-0"></path></svg></g></svg></g><g transform="matrix(1,0,0,1,163.31020799999996,108.7606134542861)"><svg viewBox="0 0 232.20979200000002 26.42768585142857" height="26.42768585142857" width="232.20979200000002"><g transform="matrix(1,0,0,1,0,0)"><svg width="232.20979200000002" viewBox="-1.7 -34 419.96 47.80000000000001" height="26.42768585142857" data-palette-color="#d94e28"><path d="M3.3 13.8L3.3 13.8Q1.25 13.8-0.23 12.7-1.7 11.6-1.7 9.75L-1.7 9.75Q-1.7 8.3-0.83 7.28 0.05 6.25 1.35 6.25L1.35 6.25Q1.95 6.25 2.2 6.45 2.45 6.65 2.6 6.9L2.6 6.9Q3 7.55 3.53 8.03 4.05 8.5 4.95 8.5L4.95 8.5Q6.15 8.5 7.28 7.65 8.4 6.8 9.35 5.7L9.35 5.7Q10.2 4.75 11.4 2.98 12.6 1.2 13.8-1.05L13.8-1.05Q12.7-0.1 11.75 0.33 10.8 0.75 9.95 0.75L9.95 0.75Q8.9 0.75 7.9-0.03 6.9-0.8 6.65-2.95L6.65-2.95Q6.5-4.6 6.08-6.6 5.65-8.6 5.03-10.48 4.4-12.35 3.5-13.65L3.5-13.65Q3.15-14.25 2.7-14.55 2.25-14.85 1.4-14.95L1.4-14.95Q0.8-15 0.63-15.3 0.45-15.6 0.45-16.25L0.45-16.25Q0.45-18.05 1.45-19.15 2.45-20.25 4.15-20.25L4.15-20.25Q6.2-20.25 7.1-18.68 8-17.1 8.65-14.85L8.65-14.85Q8.9-13.95 9.18-12.48 9.45-11 9.68-9.3 9.9-7.6 10-6.05L10-6.05Q10.05-4.95 11.25-4.95L11.25-4.95Q12.85-4.95 14.3-5.95 15.75-6.95 16.68-8.55 17.6-10.15 17.6-11.9L17.6-11.9Q17.6-12.9 17.35-13.7 17.1-14.5 16.5-15.1L16.5-15.1Q16-15.7 15.7-16.07 15.4-16.45 15.4-16.95L15.4-16.95Q15.4-17.8 16.2-18.55 17-19.3 18.13-19.8 19.25-20.3 20.1-20.3L20.1-20.3Q21.6-20.3 22.1-18.88 22.6-17.45 22.35-15.75L22.35-15.75Q22.05-13.4 21.15-10.2 20.25-7 18.82-3.5 17.4 0 15.58 3.28 13.75 6.55 11.7 9L11.7 9Q9.95 11.15 7.8 12.48 5.65 13.8 3.3 13.8ZM33.95 0.65L33.95 0.65Q30.5 0.65 28.42-1.23 26.35-3.1 26.35-6.75L26.35-6.75Q26.35-8.45 26.82-10.05 27.3-11.65 28.1-13.05L28.1-13.05Q27.3-12.55 26.9-12.55L26.9-12.55Q26.3-12.55 26.07-13.23 25.85-13.9 25.85-14.55L25.85-14.55Q25.85-15.7 26.32-16.38 26.8-17.05 27.25-17.4L27.25-17.4Q28.3-18.3 30.55-19.38 32.8-20.45 35.95-20.45L35.95-20.45Q40.25-20.45 42.62-18.05 45-15.65 45-11.35L45-11.35Q45-8 43.6-5.28 42.2-2.55 39.72-0.95 37.25 0.65 33.95 0.65ZM35.5-4.45L35.5-4.45Q38-4.45 39.72-6.03 41.45-7.6 41.45-10.2L41.45-10.2Q41.45-12.9 39.7-14.05 37.95-15.2 35.65-15.2L35.65-15.2Q34.6-15.2 33.75-15 32.9-14.8 32.15-14.5L32.15-14.5Q31.45-13.5 30.9-12.25 30.35-11 30.35-9.5L30.35-9.5Q30.35-7 31.85-5.73 33.35-4.45 35.5-4.45ZM55.1 0.65L55.1 0.65Q52.6 0.65 51.22-0.8 49.85-2.25 49.85-5L49.85-5Q49.85-6.95 50.4-9L50.4-9Q50.65-9.85 50.8-10.7 50.95-11.55 50.95-12.4L50.95-12.4Q50.95-14.6 49.6-15.25L49.6-15.25Q48.3-15.95 48.3-16.75L48.3-16.75Q48.3-17.55 48.97-18.35 49.65-19.15 50.65-19.68 51.65-20.2 52.65-20.2L52.65-20.2Q55.5-20.2 55.5-15.55L55.5-15.55Q55.5-14.05 55.27-12.78 55.05-11.5 54.75-10.35L54.75-10.35Q54.55-9.55 54.42-8.75 54.3-7.95 54.3-7.35L54.3-7.35Q54.3-4.85 56.75-4.85L56.75-4.85Q59.05-4.85 61.05-7.3 63.05-9.75 64.35-14.15L64.35-14.15 64.3-15.1Q64.2-17.6 65.17-18.9 66.15-20.2 68.05-20.2L68.05-20.2Q69.7-20.2 69.7-19.15L69.7-19.15Q69.7-18.8 69.57-18.25 69.45-17.7 69.2-16.95L69.2-16.95Q68.7-15.1 68.35-13.03 68-10.95 68-9.2L68-9.2Q68-7.25 68.6-5.98 69.2-4.7 70.85-4.25L70.85-4.25Q71.3-4.2 71.57-3.98 71.85-3.75 71.85-3.05L71.85-3.05Q71.85-1.85 70.85-0.7 69.85 0.45 67.95 0.45L67.95 0.45Q64.3 0.45 64.3-4.7L64.3-4.7Q64.3-5.6 64.45-7.4L64.45-7.4 64.35-7.45Q61.2 0.65 55.1 0.65ZM94.39 0.65L94.39 0.65Q91.39 0.65 89.57-1.23 87.74-3.1 87.74-6.6L87.74-6.6Q87.74-9.1 88.72-11.58 89.69-14.05 91.54-16.05 93.39-18.05 95.99-19.25 98.59-20.45 101.84-20.45L101.84-20.45Q104.84-20.45 106.97-19.43 109.09-18.4 109.09-16.65L109.09-16.65Q109.09-16.2 108.99-15.48 108.89-14.75 108.74-14.3L108.74-14.3Q108.59-13.9 108.32-13.58 108.04-13.25 107.59-13.25L107.59-13.25Q107.39-13.25 106.84-13.4L106.84-13.4Q106.64-12.35 106.54-11.35 106.44-10.35 106.44-9.35L106.44-9.35Q106.44-7.45 107.02-5.98 107.59-4.5 109.29-4.15L109.29-4.15Q109.74-4.05 110.02-3.85 110.29-3.65 110.29-3L110.29-3Q110.29-2.45 110.02-1.6 109.74-0.75 108.97-0.08 108.19 0.6 106.74 0.6L106.74 0.6Q104.79 0.6 103.74-0.83 102.69-2.25 102.69-4.9L102.69-4.9Q101.34-2.45 99.27-0.9 97.19 0.65 94.39 0.65ZM95.99-4.55L95.99-4.55Q97.99-4.55 99.52-5.8 101.04-7.05 101.89-8.95L101.89-8.95Q102.44-10.15 102.74-11.58 103.04-13 103.14-14.4L103.14-14.4Q102.29-14.8 101.19-15.05 100.09-15.3 98.89-15.3L98.89-15.3Q95.84-15.3 93.87-13.5 91.89-11.7 91.89-9L91.89-9Q91.89-7 92.99-5.78 94.09-4.55 95.99-4.55ZM119.99 0.65L119.99 0.65Q118.14 0.65 116.54 0.1 114.94-0.45 113.94-1.45 112.94-2.45 112.94-3.85L112.94-3.85Q112.94-4.6 113.31-5.28 113.69-5.95 114.54-5.95L114.54-5.95Q114.99-5.95 115.49-5.7L115.49-5.7Q116.39-5.2 117.79-4.78 119.19-4.35 120.74-4.35L120.74-4.35Q122.49-4.35 123.84-4.85 125.19-5.35 125.19-6.25L125.19-6.25Q125.19-6.95 124.16-7.25 123.14-7.55 120.74-7.9L120.74-7.9Q119.09-8.2 117.54-8.6 115.99-9 114.99-9.98 113.99-10.95 113.99-12.85L113.99-12.85Q113.99-14.7 115.01-16.43 116.04-18.15 118.09-19.3 120.14-20.45 123.09-20.45L123.09-20.45Q124.64-20.45 126.09-20.1 127.54-19.75 128.49-19.05 129.44-18.35 129.44-17.3L129.44-17.3Q129.44-16.4 128.81-15.65 128.19-14.9 127.36-14.43 126.54-13.95 125.99-13.95L125.99-13.95Q125.59-13.95 125.04-14.5L125.04-14.5Q124.19-15.2 123.16-15.48 122.14-15.75 121.14-15.75L121.14-15.75Q119.64-15.75 118.71-15.3 117.79-14.85 117.79-14.15L117.79-14.15Q117.79-13.5 118.56-13.1 119.34-12.7 120.49-12.53 121.64-12.35 122.69-12.2L122.69-12.2Q125.59-11.8 127.29-10.83 128.99-9.85 128.99-7.4L128.99-7.4Q128.99-5.5 127.91-3.63 126.84-1.75 124.81-0.55 122.79 0.65 119.99 0.65ZM135.19 0.55L135.19 0.55Q134.64 0.55 134.14 0.23 133.64-0.1 133.74-0.65L133.74-0.65Q134.49-4.65 135.01-8.78 135.54-12.9 135.54-17.1L135.54-17.1Q135.54-20.8 135.29-23.8 135.04-26.8 133.69-29.55L133.69-29.55Q133.44-30.1 133.29-30.5 133.14-30.9 133.14-31.25L133.14-31.25Q133.14-32.2 134.24-33.1 135.34-34 136.59-34L136.59-34Q138.39-34 139.04-31.8 139.69-29.6 139.69-25.3L139.69-25.3Q139.69-20.15 139.09-16.32 138.49-12.5 138.04-10.5L138.04-10.5 138.24-10.4Q139.24-12.85 140.79-15.13 142.34-17.4 144.36-18.9 146.39-20.4 148.79-20.4L148.79-20.4Q151.14-20.4 152.41-19 153.69-17.6 153.69-15.65L153.69-15.65Q153.69-13.35 152.04-11.55 150.39-9.75 147.74-8.55L147.74-8.55Q148.39-6.85 149.59-5.88 150.79-4.9 152.64-4.9L152.64-4.9Q153.24-4.9 153.64-5L153.64-5Q154.29-5.15 154.29-3.75L154.29-3.75Q154.29-2.95 153.99-1.95 153.69-0.95 152.81-0.23 151.94 0.5 150.19 0.5L150.19 0.5Q147.84 0.5 146.36-0.88 144.89-2.25 144.06-4.28 143.24-6.3 142.79-8.3L142.79-8.3Q142.39-10.15 144.04-10.25L144.04-10.25Q145.79-10.45 146.99-11.3 148.19-12.15 148.19-13.55L148.19-13.55Q148.19-15.15 146.64-15.15L146.64-15.15Q145.64-15.15 144.61-14.43 143.59-13.7 142.71-12.7 141.84-11.7 141.29-10.75L141.29-10.75Q140.54-9.45 139.99-8.2 139.44-6.95 139.09-5.7L139.09-5.7 139.09-3.7Q139.09-1.85 138.01-0.65 136.94 0.55 135.19 0.55ZM179.93 0.7L179.93 0.7Q178.23 0.7 177.31-0.28 176.38-1.25 176.28-4L176.28-4Q176.23-6.95 175.98-9.85 175.73-12.75 175.18-15.35L175.18-15.35Q174.43-19.15 173.13-22.2 171.83-25.25 169.48-27.45L169.48-27.45Q169.08-27.85 168.83-28.2 168.58-28.55 168.58-29L168.58-29Q168.58-30.05 169.68-31.03 170.78-32 172.28-32L172.28-32Q174.03-32 175.28-30.5 176.53-29 177.43-26.3L177.43-26.3Q178.48-23.55 179.08-20.3 179.68-17.05 179.91-13.68 180.13-10.3 180.13-7.15L180.13-7.15Q180.13-6.05 180.43-5.7 180.73-5.35 181.48-5.35L181.48-5.35Q183.13-5.35 184.76-6.35 186.38-7.35 187.71-9.08 189.03-10.8 189.83-12.9 190.63-15 190.68-17.15L190.68-17.15Q190.73-19.4 189.91-21.53 189.08-23.65 187.78-25.15L187.78-25.15Q187.43-25.55 187.26-25.88 187.08-26.2 187.08-26.55L187.08-26.55Q187.08-27.35 187.73-28.1 188.38-28.85 189.23-29.35 190.08-29.85 190.68-29.85L190.68-29.85Q191.93-29.85 192.81-28.03 193.68-26.2 194.28-23.6L194.28-23.6Q195.13-20.3 195.48-16.2 195.83-12.1 195.83-7.55L195.83-7.55Q195.83-6.3 196.08-5.85 196.33-5.4 197.18-5.4L197.18-5.4Q198.98-5.4 200.68-6.7 202.38-8 203.71-10.28 205.03-12.55 205.81-15.48 206.58-18.4 206.58-21.65L206.58-21.65Q206.58-24.1 206.21-25.63 205.83-27.15 205.48-27.8L205.48-27.8Q204.98-28.75 204.98-29.4L204.98-29.4Q204.98-30.15 205.66-30.83 206.33-31.5 207.28-31.95 208.23-32.4 208.93-32.4L208.93-32.4Q210.03-32.4 210.51-31.48 210.98-30.55 211.11-29.2 211.23-27.85 211.23-26.65L211.23-26.65Q211.23-23.2 210.51-19.43 209.78-15.65 208.43-12.08 207.08-8.5 205.21-5.63 203.33-2.75 200.98-1.03 198.63 0.7 195.93 0.7L195.93 0.7Q194.13 0.7 193.28-0.1 192.43-0.9 192.18-2.35 191.93-3.8 191.93-5.75L191.93-5.75Q191.93-6.9 191.96-7.93 191.98-8.95 191.98-9.8L191.98-9.8Q189.68-4.65 186.43-1.98 183.18 0.7 179.93 0.7ZM220.03 0.65L220.03 0.65Q216.23 0.65 214.1-1.53 211.98-3.7 211.98-7.6L211.98-7.6Q211.98-11.15 213.53-14.05 215.08-16.95 217.7-18.68 220.33-20.4 223.48-20.4L223.48-20.4Q226.48-20.4 228.28-18.93 230.08-17.45 230.08-15L230.08-15Q230.08-13.05 228.88-11.4 227.68-9.75 225.68-8.78 223.68-7.8 221.23-7.8L221.23-7.8Q218.23-7.8 216.33-9.15L216.33-9.15Q216.38-6.85 217.9-5.45 219.43-4.05 221.83-4.05L221.83-4.05Q223.28-4.05 224.8-4.58 226.33-5.1 227.43-6L227.43-6Q228.13-6.6 228.73-6.6L228.73-6.6Q229.23-6.6 229.55-6.28 229.88-5.95 229.88-5.45L229.88-5.45Q229.88-4.35 227.98-2.55L227.98-2.55Q224.63 0.65 220.03 0.65ZM220.78-11.1L220.78-11.1Q222.58-11.1 223.78-11.85 224.98-12.6 224.98-13.75L224.98-13.75Q224.98-14.7 224.18-15.23 223.38-15.75 221.98-15.75L221.98-15.75Q220.13-15.75 218.75-14.78 217.38-13.8 216.78-12.05L216.78-12.05Q217.48-11.6 218.58-11.35 219.68-11.1 220.78-11.1ZM250.42 0.55L250.42 0.55Q249.62 0.55 249.15 0.28 248.67 0 248.82-0.65L248.82-0.65Q249.37-2.8 249.75-5.03 250.12-7.25 250.12-9.3L250.12-9.3Q250.12-11.95 249.8-13.18 249.47-14.4 248.92-14.88 248.37-15.35 247.57-15.6L247.57-15.6Q247.22-15.75 246.95-16 246.67-16.25 246.67-16.7L246.67-16.7Q246.67-17.4 247.22-18.25 247.77-19.1 248.77-19.73 249.77-20.35 251.07-20.35L251.07-20.35Q252.77-20.35 253.45-19.18 254.12-18 254.12-16.1L254.12-16.1Q255.02-18.1 256.35-19.28 257.67-20.45 259.67-20.45L259.67-20.45Q261.02-20.45 261.92-19.85 262.82-19.25 262.82-17.9L262.82-17.9Q262.82-16.55 261.95-15.38 261.07-14.2 260.17-14.2L260.17-14.2Q260.02-14.2 259.82-14.25 259.62-14.3 259.47-14.5L259.47-14.5Q258.82-15.3 257.87-15.3L257.87-15.3Q256.42-15.3 255.32-13.4 254.22-11.5 254.12-8.15L254.12-8.15Q254.17-6.9 254.2-5.6 254.22-4.3 254.22-3.7L254.22-3.7Q254.22-1.85 253.2-0.65 252.17 0.55 250.42 0.55ZM271.27 0.65L271.27 0.65Q267.47 0.65 265.35-1.53 263.22-3.7 263.22-7.6L263.22-7.6Q263.22-11.15 264.77-14.05 266.32-16.95 268.95-18.68 271.57-20.4 274.72-20.4L274.72-20.4Q277.72-20.4 279.52-18.93 281.32-17.45 281.32-15L281.32-15Q281.32-13.05 280.12-11.4 278.92-9.75 276.92-8.78 274.92-7.8 272.47-7.8L272.47-7.8Q269.47-7.8 267.57-9.15L267.57-9.15Q267.62-6.85 269.15-5.45 270.67-4.05 273.07-4.05L273.07-4.05Q274.52-4.05 276.05-4.58 277.57-5.1 278.67-6L278.67-6Q279.37-6.6 279.97-6.6L279.97-6.6Q280.47-6.6 280.8-6.28 281.12-5.95 281.12-5.45L281.12-5.45Q281.12-4.35 279.22-2.55L279.22-2.55Q275.87 0.65 271.27 0.65ZM272.02-11.1L272.02-11.1Q273.82-11.1 275.02-11.85 276.22-12.6 276.22-13.75L276.22-13.75Q276.22-14.7 275.42-15.23 274.62-15.75 273.22-15.75L273.22-15.75Q271.37-15.75 270-14.78 268.62-13.8 268.02-12.05L268.02-12.05Q268.72-11.6 269.82-11.35 270.92-11.1 272.02-11.1ZM291.77 0.65L291.77 0.65Q289.92 0.65 288.32 0.1 286.72-0.45 285.72-1.45 284.72-2.45 284.72-3.85L284.72-3.85Q284.72-4.6 285.09-5.28 285.47-5.95 286.32-5.95L286.32-5.95Q286.77-5.95 287.27-5.7L287.27-5.7Q288.17-5.2 289.57-4.78 290.97-4.35 292.52-4.35L292.52-4.35Q294.27-4.35 295.62-4.85 296.97-5.35 296.97-6.25L296.97-6.25Q296.97-6.95 295.94-7.25 294.92-7.55 292.52-7.9L292.52-7.9Q290.87-8.2 289.32-8.6 287.77-9 286.77-9.98 285.77-10.95 285.77-12.85L285.77-12.85Q285.77-14.7 286.79-16.43 287.82-18.15 289.87-19.3 291.92-20.45 294.87-20.45L294.87-20.45Q296.42-20.45 297.87-20.1 299.32-19.75 300.27-19.05 301.22-18.35 301.22-17.3L301.22-17.3Q301.22-16.4 300.59-15.65 299.97-14.9 299.14-14.43 298.32-13.95 297.77-13.95L297.77-13.95Q297.37-13.95 296.82-14.5L296.82-14.5Q295.97-15.2 294.94-15.48 293.92-15.75 292.92-15.75L292.92-15.75Q291.42-15.75 290.49-15.3 289.57-14.85 289.57-14.15L289.57-14.15Q289.57-13.5 290.34-13.1 291.12-12.7 292.27-12.53 293.42-12.35 294.47-12.2L294.47-12.2Q297.37-11.8 299.07-10.83 300.77-9.85 300.77-7.4L300.77-7.4Q300.77-5.5 299.69-3.63 298.62-1.75 296.59-0.55 294.57 0.65 291.77 0.65ZM308.22 13.8L308.22 13.8Q306.72 13.8 305.87 12.98 305.02 12.15 305.02 10L305.02 10Q305.02 8.55 305.34 6.35 305.67 4.15 306.12 1.7L306.12 1.7Q306.47-0.25 306.79-2.4 307.12-4.55 307.34-6.63 307.57-8.7 307.57-10.35L307.57-10.35Q307.57-12.25 307.14-13.65 306.72-15.05 305.42-15.45L305.42-15.45Q304.92-15.65 304.52-15.9 304.12-16.15 304.12-16.7L304.12-16.7Q304.12-17.4 304.67-18.25 305.22-19.1 306.24-19.73 307.27-20.35 308.57-20.35L308.57-20.35Q310.27-20.35 310.92-19.18 311.57-18 311.57-16.1L311.57-16.1Q311.57-15.55 311.52-14.98 311.47-14.4 311.37-13.8L311.37-13.8Q312.82-16.6 315.19-18.53 317.57-20.45 320.57-20.45L320.57-20.45Q323.57-20.45 325.29-18.43 327.02-16.4 327.02-12.95L327.02-12.95Q327.02-10.4 326.22-7.98 325.42-5.55 323.97-3.6 322.52-1.65 320.49-0.5 318.47 0.65 315.97 0.65L315.97 0.65Q314.17 0.65 312.82 0.03 311.47-0.6 310.47-1.6L310.47-1.6Q310.27-0.3 310.09 1.55 309.92 3.4 309.92 5L309.92 5Q309.92 6.85 310.34 7.9 310.77 8.95 312.02 9.5L312.02 9.5Q312.57 9.75 312.57 10.3L312.57 10.3Q312.57 10.7 312.17 11.55 311.77 12.4 310.84 13.1 309.92 13.8 308.22 13.8ZM317.12-4.75L317.12-4.75Q319.97-4.75 321.52-6.55 323.07-8.35 323.07-10.7L323.07-10.7Q323.07-12.75 321.97-13.88 320.87-15 319.02-15L319.02-15Q317.12-15 315.67-13.88 314.22-12.75 313.19-10.95 312.17-9.15 311.52-7.1L311.52-7.1Q314.02-4.75 317.12-4.75ZM338.76 0.65L338.76 0.65Q335.31 0.65 333.24-1.23 331.16-3.1 331.16-6.75L331.16-6.75Q331.16-8.45 331.64-10.05 332.11-11.65 332.91-13.05L332.91-13.05Q332.11-12.55 331.71-12.55L331.71-12.55Q331.11-12.55 330.89-13.23 330.66-13.9 330.66-14.55L330.66-14.55Q330.66-15.7 331.14-16.38 331.61-17.05 332.06-17.4L332.06-17.4Q333.11-18.3 335.36-19.38 337.61-20.45 340.76-20.45L340.76-20.45Q345.06-20.45 347.44-18.05 349.81-15.65 349.81-11.35L349.81-11.35Q349.81-8 348.41-5.28 347.01-2.55 344.54-0.95 342.06 0.65 338.76 0.65ZM340.31-4.45L340.31-4.45Q342.81-4.45 344.54-6.03 346.26-7.6 346.26-10.2L346.26-10.2Q346.26-12.9 344.51-14.05 342.76-15.2 340.46-15.2L340.46-15.2Q339.41-15.2 338.56-15 337.71-14.8 336.96-14.5L336.96-14.5Q336.26-13.5 335.71-12.25 335.16-11 335.16-9.5L335.16-9.5Q335.16-7 336.66-5.73 338.16-4.45 340.31-4.45ZM356.46 0.55L356.46 0.55Q354.66 0.55 354.86-0.65L354.86-0.65Q355.41-2.8 355.79-5.03 356.16-7.25 356.16-9.3L356.16-9.3Q356.16-11.95 355.84-13.18 355.51-14.4 354.96-14.88 354.41-15.35 353.61-15.6L353.61-15.6Q353.26-15.75 352.99-16 352.71-16.25 352.71-16.7L352.71-16.7Q352.71-17.4 353.26-18.25 353.81-19.1 354.84-19.73 355.86-20.35 357.16-20.35L357.16-20.35Q358.86-20.35 359.51-19.18 360.16-18 360.16-16.1L360.16-16.1Q360.16-14.85 359.91-13.3 359.66-11.75 359.41-10.5L359.41-10.5 359.56-10.45Q360.56-13.1 361.99-15.38 363.41-17.65 365.31-19.05 367.21-20.45 369.71-20.45L369.71-20.45Q372.36-20.45 373.76-18.85 375.16-17.25 375.16-14.85L375.16-14.85Q375.16-13.85 374.94-12.95 374.71-12.05 374.46-11.2L374.46-11.2Q374.21-10.4 374.04-9.55 373.86-8.7 373.86-7.85L373.86-7.85Q373.86-5 376.56-4L376.56-4Q377.26-3.7 377.26-3.1L377.26-3.1Q377.26-2.65 376.96-1.8 376.66-0.95 375.86-0.23 375.06 0.5 373.51 0.5L373.51 0.5Q371.51 0.5 370.41-0.93 369.31-2.35 369.31-4.55L369.31-4.55Q369.31-5.8 369.59-7.08 369.86-8.35 370.16-9.45L370.16-9.45Q370.36-10.3 370.54-11.13 370.71-11.95 370.71-12.6L370.71-12.6Q370.71-14.9 368.31-14.9L368.31-14.9Q366.26-14.9 364.71-13.38 363.16-11.85 362.06-9.55 360.96-7.25 360.26-4.9L360.26-4.9 360.26-3.7Q360.26-1.85 359.24-0.65 358.21 0.55 356.46 0.55ZM387.06 0.65L387.06 0.65Q385.21 0.65 383.61 0.1 382.01-0.45 381.01-1.45 380.01-2.45 380.01-3.85L380.01-3.85Q380.01-4.6 380.38-5.28 380.76-5.95 381.61-5.95L381.61-5.95Q382.06-5.95 382.56-5.7L382.56-5.7Q383.46-5.2 384.86-4.78 386.26-4.35 387.81-4.35L387.81-4.35Q389.56-4.35 390.91-4.85 392.26-5.35 392.26-6.25L392.26-6.25Q392.26-6.95 391.23-7.25 390.21-7.55 387.81-7.9L387.81-7.9Q386.16-8.2 384.61-8.6 383.06-9 382.06-9.98 381.06-10.95 381.06-12.85L381.06-12.85Q381.06-14.7 382.08-16.43 383.11-18.15 385.16-19.3 387.21-20.45 390.16-20.45L390.16-20.45Q391.71-20.45 393.16-20.1 394.61-19.75 395.56-19.05 396.51-18.35 396.51-17.3L396.51-17.3Q396.51-16.4 395.88-15.65 395.26-14.9 394.43-14.43 393.61-13.95 393.06-13.95L393.06-13.95Q392.66-13.95 392.11-14.5L392.11-14.5Q391.26-15.2 390.23-15.48 389.21-15.75 388.21-15.75L388.21-15.75Q386.71-15.75 385.78-15.3 384.86-14.85 384.86-14.15L384.86-14.15Q384.86-13.5 385.63-13.1 386.41-12.7 387.56-12.53 388.71-12.35 389.76-12.2L389.76-12.2Q392.66-11.8 394.36-10.83 396.06-9.85 396.06-7.4L396.06-7.4Q396.06-5.5 394.98-3.63 393.91-1.75 391.88-0.55 389.86 0.65 387.06 0.65ZM408.21 0.65L408.21 0.65Q404.41 0.65 402.28-1.53 400.16-3.7 400.16-7.6L400.16-7.6Q400.16-11.15 401.71-14.05 403.26-16.95 405.88-18.68 408.51-20.4 411.66-20.4L411.66-20.4Q414.66-20.4 416.46-18.93 418.26-17.45 418.26-15L418.26-15Q418.26-13.05 417.06-11.4 415.86-9.75 413.86-8.78 411.86-7.8 409.41-7.8L409.41-7.8Q406.41-7.8 404.51-9.15L404.51-9.15Q404.56-6.85 406.08-5.45 407.61-4.05 410.01-4.05L410.01-4.05Q411.46-4.05 412.98-4.58 414.51-5.1 415.61-6L415.61-6Q416.31-6.6 416.91-6.6L416.91-6.6Q417.41-6.6 417.73-6.28 418.06-5.95 418.06-5.45L418.06-5.45Q418.06-4.35 416.16-2.55L416.16-2.55Q412.81 0.65 408.21 0.65ZM408.96-11.1L408.96-11.1Q410.76-11.1 411.96-11.85 413.16-12.6 413.16-13.75L413.16-13.75Q413.16-14.7 412.36-15.23 411.56-15.75 410.16-15.75L410.16-15.75Q408.31-15.75 406.93-14.78 405.56-13.8 404.96-12.05L404.96-12.05Q405.66-11.6 406.76-11.35 407.86-11.1 408.96-11.1Z" opacity="1" transform="matrix(1,0,0,1,0,0)" fill="#d94e28" class="slogan-text-1" data-fill-palette-color="secondary" id="text-1"></path></svg></g></svg></g></svg></g></svg></g><g transform="matrix(1,0,0,1,416.2919999270547,0)"><svg viewBox="0 0 186.8302296404977 186.8302296404977" height="186.8302296404977" width="186.8302296404977"><g data-palette-color="#f9744c"><rect width="51.06692943506937" height="186.8302296404977" fill="#f9744c" stroke="transparent" data-fill-palette-color="accent" x="0" fill-opacity="1"></rect><rect width="51.06692943506937" height="186.8302296404977" fill="#f9744c" stroke="transparent" data-fill-palette-color="accent" x="62.27674321349923" fill-opacity="0.75"></rect><rect width="51.06692943506937" height="186.8302296404977" fill="#f9744c" stroke="transparent" data-fill-palette-color="accent" x="124.55348642699846" fill-opacity="0.5"></rect></g></svg></g></svg></g><defs></defs></svg><rect width="395.52" height="122.52092329674787" fill="none" stroke="none" visibility="hidden"></rect></g></svg></g></svg>